<svg width="22" height="22" viewBox="0 0 22 22" fill="none" xmlns="http://www.w3.org/2000/svg">
<path fill-rule="evenodd" clip-rule="evenodd" d="M22 9C22 13.9706 17.9706 18 13 18C8.02944 18 4 13.9706 4 9C4 4.02944 8.02944 0 13 0C17.9706 0 22 4.02944 22 9ZM19 9C19 12.3137 16.3137 15 13 15C9.68629 15 7 12.3137 7 9C7 5.68629 9.68629 3 13 3C16.3137 3 19 5.68629 19 9Z" fill="#63757E"/>
<path fill-rule="evenodd" clip-rule="evenodd" d="M0.550293 19.4749L2.67161 21.5962L9.74268 14.5251L7.62136 12.4038L0.550293 19.4749Z" fill="#63757E"/>
</svg>
